<svg width="108" height="15" viewBox="0 0 108 15" fill="none" xmlns="http://www.w3.org/2000/svg">
<path d="M1.852 14.008C1.48 13.876 1.174 13.726 0.934 13.558C0.706 13.39 0.514 13.114 0.358 12.73C0.166 12.19 0.07 11.554 0.07 10.822C0.07 10.114 0.112 9.514 0.196 9.022C0.28 8.518 0.424 8.008 0.628 7.492L0.79 7.114C0.982 6.622 1.12 6.298 1.204 6.142C1.408 5.674 1.768 5.068 2.284 4.324C2.74 3.628 3.1 3.124 3.364 2.812C3.628 2.488 3.88 2.23 4.12 2.038C4.372 1.846 4.828 1.522 5.488 1.066C5.764 0.862 6.082 0.76 6.442 0.76C6.742 0.76 7.018 0.838 7.27 0.993999C7.534 1.138 7.732 1.348 7.864 1.624C7.996 1.852 8.062 2.158 8.062 2.542C8.062 3.082 7.942 3.646 7.702 4.234C7.462 4.822 7.156 5.284 6.784 5.62C6.664 5.728 6.55 5.782 6.442 5.782C6.31 5.782 6.136 5.686 5.92 5.494C5.812 5.29 5.752 5.17 5.74 5.134C5.728 5.098 5.752 5.074 5.812 5.062C5.92 4.93 6.076 4.678 6.28 4.306C6.496 3.922 6.64 3.622 6.712 3.406C6.736 3.334 6.76 3.214 6.784 3.046C6.88 2.626 6.928 2.344 6.928 2.2C6.928 2.056 6.886 1.942 6.802 1.858C6.766 1.822 6.718 1.804 6.658 1.804C6.562 1.804 6.394 1.864 6.154 1.984C5.866 2.104 5.5 2.374 5.056 2.794C4.612 3.214 4.21 3.67 3.85 4.162C3.298 4.882 2.872 5.476 2.572 5.944C2.284 6.412 2.062 6.886 1.906 7.366L1.708 7.834C1.72 7.882 1.702 8.002 1.654 8.194C1.606 8.386 1.552 8.542 1.492 8.662C1.324 9.358 1.24 10.048 1.24 10.732C1.24 11.248 1.282 11.704 1.366 12.1C1.462 12.496 1.594 12.766 1.762 12.91C1.858 12.994 2.002 13.036 2.194 13.036C2.434 13.036 2.728 12.976 3.076 12.856C3.436 12.736 3.874 12.562 4.39 12.334C4.666 12.226 4.924 12.1 5.164 11.956C5.416 11.812 5.602 11.68 5.722 11.56C6.034 11.332 6.286 11.218 6.478 11.218C6.61 11.17 6.7 11.146 6.748 11.146C6.772 11.146 6.784 11.164 6.784 11.2C6.796 11.224 6.802 11.26 6.802 11.308C6.802 11.476 6.712 11.662 6.532 11.866C6.352 12.058 6.112 12.244 5.812 12.424C5.572 12.664 5.284 12.85 4.948 12.982C4.564 13.258 4.114 13.504 3.598 13.72C3.094 13.936 2.632 14.044 2.212 14.044C2.116 14.044 1.996 14.032 1.852 14.008ZM10.2296 12.892C10.1696 12.916 10.0136 12.868 9.76159 12.748C9.50959 12.616 9.32359 12.484 9.20359 12.352C9.08359 12.208 8.98759 12.076 8.91559 11.956C8.85559 11.836 8.82559 11.698 8.82559 11.542C8.75359 11.374 8.70559 11.206 8.68159 11.038C8.66959 10.858 8.66359 10.63 8.66359 10.354C8.66359 10.102 8.71159 9.856 8.80759 9.616C8.90359 9.376 9.03559 9.088 9.20359 8.752C9.31159 8.452 9.55159 8.086 9.92359 7.654C10.3076 7.21 10.7096 6.886 11.1296 6.682C11.4656 6.502 11.7536 6.412 11.9936 6.412C12.1376 6.412 12.2756 6.436 12.4076 6.484C12.5516 6.52 12.6596 6.58 12.7316 6.664C12.8036 6.736 12.8576 6.784 12.8936 6.808C12.9896 6.712 13.0736 6.496 13.1456 6.16C13.2296 5.812 13.2716 5.44 13.2716 5.044C13.2716 4.3 13.1456 3.76 12.8936 3.424C12.4976 2.86 12.0356 2.578 11.5076 2.578C11.3036 2.578 11.0516 2.638 10.7516 2.758C10.5956 2.686 10.4636 2.566 10.3556 2.398C10.2476 2.23 10.2176 2.068 10.2656 1.912C10.5416 1.684 10.8056 1.546 11.0576 1.498C11.2976 1.45 11.4716 1.426 11.5796 1.426C11.7836 1.426 11.9636 1.474 12.1196 1.57C12.7196 1.762 13.1816 2.038 13.5056 2.398C13.8296 2.758 14.0516 3.184 14.1716 3.676C14.3036 4.168 14.3816 4.786 14.4056 5.53C14.4176 5.638 14.4236 5.782 14.4236 5.962C14.4236 6.118 14.4056 6.394 14.3696 6.79C14.2976 6.886 14.2556 7.006 14.2436 7.15C14.2316 7.294 14.2256 7.378 14.2256 7.402C14.2256 7.642 14.2016 7.816 14.1536 7.924C14.1416 8.08 14.0936 8.248 14.0096 8.428C13.9256 8.608 13.8836 8.734 13.8836 8.806C13.5356 9.79 13.0316 10.672 12.3716 11.452C11.7116 12.232 10.9976 12.712 10.2296 12.892ZM10.1216 11.722C10.2896 11.794 10.5776 11.662 10.9856 11.326C11.4056 10.978 11.7536 10.606 12.0296 10.21C12.1016 10.102 12.2156 9.898 12.3716 9.598C12.5276 9.286 12.6416 9.052 12.7136 8.896C12.8456 8.536 12.9116 8.212 12.9116 7.924C12.9116 7.72 12.8756 7.582 12.8036 7.51C12.7076 7.414 12.5816 7.366 12.4256 7.366C12.1256 7.366 11.7596 7.516 11.3276 7.816C11.1836 7.924 11.0396 8.074 10.8956 8.266C10.7636 8.446 10.6796 8.56 10.6436 8.608C10.5236 8.8 10.4276 8.938 10.3556 9.022V9.058C10.3556 9.142 10.3196 9.214 10.2476 9.274C10.1876 9.334 10.1456 9.382 10.1216 9.418C9.98959 9.67 9.89359 9.928 9.83359 10.192C9.77359 10.444 9.74359 10.624 9.74359 10.732C9.74359 10.948 9.77359 11.152 9.83359 11.344C9.90559 11.536 10.0016 11.662 10.1216 11.722ZM17.9973 12.37C17.6973 12.634 17.3373 12.766 16.9173 12.766C16.6173 12.766 16.3293 12.694 16.0533 12.55C15.7893 12.406 15.5673 12.208 15.3873 11.956C15.2313 11.764 15.1173 11.548 15.0453 11.308C14.9733 11.068 14.9373 10.774 14.9373 10.426C14.9373 10.306 14.9493 10.066 14.9733 9.706C15.0093 9.262 15.1533 8.8 15.4053 8.32C15.6693 7.84 15.9933 7.414 16.3773 7.042C16.7613 6.658 17.1393 6.394 17.5113 6.25C17.7033 6.13 17.8773 6.07 18.0333 6.07C18.1173 6.07 18.2013 6.076 18.2853 6.088C18.3693 6.1 18.4593 6.112 18.5553 6.124C18.8193 6.16 19.0173 6.214 19.1493 6.286C19.2933 6.346 19.4133 6.442 19.5093 6.574C19.8093 6.874 19.9593 7.222 19.9593 7.618C19.9113 7.906 19.7253 8.236 19.4013 8.608C19.0773 8.98 18.6873 9.28 18.2313 9.508C18.0153 9.58 17.7693 9.616 17.4933 9.616C17.1213 9.616 16.8213 9.538 16.5933 9.382C16.4853 9.346 16.4013 9.328 16.3413 9.328C16.2333 9.328 16.1493 9.4 16.0893 9.544C16.0413 9.688 15.9933 9.952 15.9453 10.336C15.9333 10.42 15.9273 10.54 15.9273 10.696C15.9273 11.308 16.1313 11.644 16.5393 11.704C16.8153 11.764 17.0133 11.794 17.1333 11.794C17.2773 11.794 17.4393 11.746 17.6193 11.65L17.9613 11.452C18.0333 11.416 18.0993 11.368 18.1593 11.308C18.2193 11.248 18.2733 11.194 18.3213 11.146C18.3453 11.122 18.3813 11.086 18.4293 11.038C18.4773 10.978 18.5193 10.942 18.5553 10.93C18.6033 10.906 18.6453 10.894 18.6813 10.894C18.7293 10.894 18.7833 10.924 18.8433 10.984C18.9033 11.032 18.9513 11.068 18.9873 11.092C19.0953 11.092 19.1193 11.17 19.0593 11.326C18.9993 11.47 18.8673 11.644 18.6633 11.848C18.4713 12.04 18.2493 12.214 17.9973 12.37ZM17.9793 8.554C18.1833 8.47 18.3873 8.32 18.5913 8.104C18.8073 7.888 18.9153 7.708 18.9153 7.564C18.9153 7.42 18.8613 7.3 18.7533 7.204C18.6453 7.108 18.4953 7.06 18.3033 7.06C18.1593 7.06 18.0513 7.072 17.9793 7.096C17.8113 7.144 17.6133 7.276 17.3853 7.492C17.1573 7.696 16.9593 7.906 16.7913 8.122C16.6233 8.338 16.5573 8.464 16.5933 8.5C16.6533 8.608 16.8873 8.662 17.2953 8.662C17.5713 8.662 17.7993 8.626 17.9793 8.554ZM20.3588 12.658C20.2748 12.61 20.1728 12.58 20.0528 12.568C19.9448 12.556 19.8668 12.544 19.8188 12.532C19.6508 12.364 19.5428 12.172 19.4948 11.956V11.902C19.4948 11.842 19.5128 11.782 19.5488 11.722C19.5968 11.662 19.6268 11.62 19.6388 11.596L19.9088 11.614C20.2448 11.362 20.5868 10.996 20.9348 10.516C21.2828 10.06 21.5408 9.58 21.7088 9.076C21.7328 8.98 21.7568 8.866 21.7808 8.734C21.8048 8.602 21.8348 8.5 21.8708 8.428C21.9308 8.308 21.9848 8.158 22.0328 7.978C22.0928 7.798 22.1408 7.654 22.1768 7.546C21.9008 7.498 21.7208 7.456 21.6368 7.42C21.5648 7.384 21.4268 7.27 21.2228 7.078C21.2108 6.91 21.2288 6.79 21.2768 6.718C21.3248 6.634 21.4388 6.568 21.6188 6.52C21.6548 6.508 21.7148 6.49 21.7988 6.466C21.8948 6.442 21.9788 6.43 22.0508 6.43C22.1348 6.418 22.2668 6.412 22.4468 6.412C22.6268 6.412 22.7648 6.418 22.8608 6.43C22.9808 6.442 23.1728 6.484 23.4368 6.556C23.5448 6.592 23.6528 6.64 23.7608 6.7C23.8688 6.748 23.9768 6.79 24.0848 6.826C24.1808 6.85 24.3368 6.934 24.5528 7.078C24.7688 7.21 24.9368 7.378 25.0568 7.582C25.1768 7.786 25.2368 8.002 25.2368 8.23C25.2368 8.602 25.1828 8.95 25.0748 9.274C24.9308 9.826 24.7988 10.282 24.6788 10.642C24.6548 10.726 24.6128 10.864 24.5528 11.056C24.4928 11.236 24.4508 11.398 24.4268 11.542C24.4148 11.59 24.3788 11.878 24.3188 12.406L24.0308 12.496C23.9948 12.484 23.9168 12.46 23.7968 12.424C23.6768 12.388 23.5748 12.334 23.4908 12.262C23.4068 12.19 23.3468 12.094 23.3108 11.974L23.3288 11.776V11.56C23.3648 11.176 23.4608 10.756 23.6168 10.3C23.7128 10.048 23.7968 9.778 23.8688 9.49C23.9528 9.19 24.0068 8.992 24.0308 8.896C24.0908 8.704 24.1328 8.482 24.1568 8.23V8.158C24.1568 8.05 24.1268 7.924 24.0668 7.78C23.8628 7.612 23.5928 7.498 23.2568 7.438C23.2208 7.534 23.1788 7.624 23.1308 7.708C23.1188 7.732 23.1068 7.768 23.0948 7.816C23.0948 7.852 23.0888 7.876 23.0768 7.888C23.0168 7.936 22.9748 7.996 22.9508 8.068C22.9268 8.128 22.9088 8.212 22.8968 8.32C22.8848 8.44 22.8368 8.56 22.7528 8.68C22.6928 8.752 22.6508 8.896 22.6268 9.112C22.5788 9.46 22.4588 9.82 22.2668 10.192C22.1468 10.36 22.0448 10.54 21.9608 10.732C21.9488 10.78 21.9248 10.828 21.8888 10.876C21.8528 10.924 21.8228 10.972 21.7988 11.02C21.6428 11.332 21.4928 11.566 21.3488 11.722C21.2888 11.782 21.1628 11.92 20.9708 12.136C20.7788 12.352 20.5748 12.526 20.3588 12.658ZM27.5566 12.478C27.4366 12.502 27.3286 12.514 27.2326 12.514C27.0766 12.514 26.9326 12.502 26.8006 12.478C26.6686 12.442 26.6026 12.4 26.6026 12.352C26.6026 12.316 26.5966 12.292 26.5846 12.28C26.5726 12.268 26.5486 12.262 26.5126 12.262C26.5006 12.25 26.4646 12.22 26.4046 12.172C26.3446 12.124 26.2726 12.082 26.1886 12.046C26.0806 11.878 26.0266 11.698 26.0266 11.506C26.0266 11.302 26.0806 10.984 26.1886 10.552C26.2246 10.168 26.4046 9.688 26.7286 9.112C27.0526 8.536 27.4306 7.99 27.8626 7.474C28.3066 6.958 28.7026 6.598 29.0506 6.394C29.2306 6.214 29.4586 6.124 29.7346 6.124C29.9506 6.124 30.1546 6.178 30.3466 6.286C30.5146 6.382 30.6886 6.544 30.8686 6.772C31.0606 7 31.2106 7.234 31.3186 7.474C31.3666 7.654 31.3906 7.828 31.3906 7.996C31.3906 8.176 31.3666 8.458 31.3186 8.842C31.2586 9.058 31.2046 9.322 31.1566 9.634C31.1206 9.946 31.1026 10.216 31.1026 10.444C31.0786 10.612 31.0906 10.75 31.1386 10.858C31.1866 10.954 31.2526 11.002 31.3366 11.002C31.3966 11.002 31.4626 10.984 31.5346 10.948C31.6546 10.888 31.7866 10.858 31.9306 10.858C32.0626 10.858 32.1706 10.894 32.2546 10.966C32.3386 11.038 32.3806 11.146 32.3806 11.29C32.3806 11.506 32.2306 11.722 31.9306 11.938C31.6426 12.154 31.3666 12.262 31.1026 12.262C30.9226 12.262 30.7546 12.124 30.5986 11.848C30.4546 11.56 30.3106 11.194 30.1666 10.75L30.0586 10.336L29.2846 11.074L28.8706 11.488C28.6786 11.68 28.5706 11.794 28.5466 11.83C28.4146 12.058 28.0846 12.274 27.5566 12.478ZM27.6106 11.416C27.8986 11.248 28.2526 10.954 28.6726 10.534C29.0926 10.114 29.4406 9.712 29.7166 9.328C30.0886 8.836 30.3226 8.35 30.4186 7.87C30.3706 7.726 30.2926 7.582 30.1846 7.438C30.0766 7.294 29.9806 7.216 29.8966 7.204C29.6566 7.204 29.4046 7.342 29.1406 7.618C28.8766 7.894 28.5646 8.278 28.2046 8.77L27.6106 9.652C27.5386 9.748 27.4126 10.006 27.2326 10.426C27.0526 10.834 26.9626 11.08 26.9626 11.164C26.9626 11.428 27.0406 11.56 27.1966 11.56C27.3166 11.56 27.4546 11.512 27.6106 11.416ZM34.1872 12.586C34.1512 12.574 34.0492 12.556 33.8812 12.532C33.7132 12.496 33.5692 12.448 33.4492 12.388C33.3412 12.316 33.2872 12.226 33.2872 12.118C33.2872 11.902 33.3412 11.746 33.4492 11.65L33.4852 11.56C33.4852 11.512 33.4732 11.458 33.4492 11.398C33.4252 11.338 33.4252 11.278 33.4492 11.218C33.4612 11.182 33.4912 11.104 33.5392 10.984C33.5872 10.852 33.6112 10.702 33.6112 10.534C33.6112 10.462 33.6172 10.408 33.6292 10.372C33.6772 10.24 33.7372 10.03 33.8092 9.742C33.9412 9.286 34.0492 8.962 34.1332 8.77C34.6012 7.786 34.9792 6.904 35.2672 6.124C35.3512 5.92 35.4652 5.818 35.6092 5.818C35.7412 5.818 35.8852 5.89 36.0412 6.034C36.2092 6.166 36.3352 6.304 36.4192 6.448C35.7352 7.708 35.3452 8.5 35.2492 8.824C35.4052 8.836 35.5912 8.836 35.8072 8.824C35.8912 8.812 36.0232 8.806 36.2032 8.806C36.3592 8.806 36.4732 8.812 36.5452 8.824C36.6292 8.836 36.7492 8.842 36.9052 8.842C37.0852 8.842 37.4272 8.806 37.9312 8.734L38.1112 8.176C38.2552 7.684 38.3932 7.288 38.5252 6.988C38.6572 6.676 38.8432 6.442 39.0832 6.286C39.1192 6.274 39.1672 6.268 39.2272 6.268C39.3112 6.268 39.4012 6.31 39.4972 6.394C39.5452 6.43 39.6112 6.484 39.6952 6.556C39.7792 6.616 39.8392 6.67 39.8752 6.718C39.9112 6.754 39.9292 6.796 39.9292 6.844C39.9292 6.928 39.8512 7.084 39.6952 7.312C39.6232 7.42 39.5632 7.57 39.5152 7.762C39.4432 7.978 39.3772 8.128 39.3172 8.212C39.2692 8.272 39.0892 8.752 38.7772 9.652C38.4652 10.552 38.3032 11.05 38.2912 11.146L38.2372 11.506C38.1892 11.77 38.1652 11.974 38.1652 12.118C38.1652 12.298 38.0692 12.388 37.8772 12.388C37.6612 12.388 37.4212 12.304 37.1572 12.136C37.0612 12.076 37.0012 11.944 36.9772 11.74C37.0492 11.452 37.1632 11.092 37.3192 10.66L37.5172 10.048C37.5652 9.928 37.5652 9.832 37.5172 9.76C37.2652 9.724 37.0192 9.706 36.7792 9.706C36.5152 9.706 36.1312 9.73 35.6272 9.778L35.1052 9.814C35.0092 9.91 34.8592 10.336 34.6552 11.092C34.6072 11.224 34.5712 11.344 34.5472 11.452C34.5592 11.584 34.5232 11.788 34.4392 12.064C34.3552 12.328 34.2712 12.502 34.1872 12.586ZM42.5223 12.892C42.3783 12.904 42.2583 12.898 42.1623 12.874C42.0783 12.838 41.9523 12.766 41.7843 12.658C41.2683 12.238 41.0163 11.824 41.0283 11.416C41.0403 11.38 41.0463 11.326 41.0463 11.254C41.0463 11.182 41.0403 11.128 41.0283 11.092C41.0163 11.044 41.0103 11.014 41.0103 11.002C40.9623 10.966 40.9323 10.942 40.9203 10.93C40.9203 10.906 40.9263 10.882 40.9383 10.858C40.9623 10.834 40.9803 10.81 40.9923 10.786C41.0403 10.774 41.0643 10.75 41.0643 10.714C41.0643 10.678 41.0523 10.636 41.0283 10.588C40.9923 10.492 41.0103 10.276 41.0823 9.94C41.1663 9.592 41.2743 9.268 41.4063 8.968C41.5023 8.74 41.6523 8.446 41.8563 8.086C42.0723 7.726 42.2703 7.45 42.4503 7.258C42.7023 6.97 42.9303 6.748 43.1343 6.592C43.3503 6.436 43.5963 6.31 43.8723 6.214C44.1243 6.106 44.2983 6.052 44.3943 6.052C44.5143 6.052 44.6643 6.124 44.8443 6.268C45.1323 6.352 45.3483 6.472 45.4923 6.628C45.6483 6.772 45.7683 7 45.8523 7.312C45.9243 7.564 45.9603 7.846 45.9603 8.158C45.9603 8.83 45.7503 9.568 45.3303 10.372C45.1143 10.804 44.9043 11.14 44.7003 11.38C44.4963 11.608 44.2143 11.878 43.8543 12.19C43.6023 12.394 43.3803 12.55 43.1883 12.658C43.0083 12.766 42.7863 12.844 42.5223 12.892ZM43.9623 10.75C44.2143 10.378 44.4063 10.042 44.5383 9.742C44.6703 9.43 44.7783 9.046 44.8623 8.59C44.8743 8.542 44.8803 8.446 44.8803 8.302C44.8803 8.062 44.8563 7.834 44.8083 7.618C44.7603 7.402 44.7003 7.288 44.6283 7.276C44.5323 7.24 44.4423 7.222 44.3583 7.222C44.0823 7.222 43.7883 7.384 43.4763 7.708C43.1883 8.044 42.9363 8.452 42.7203 8.932C42.5163 9.4 42.3123 9.976 42.1083 10.66C42.0483 10.9 42.0183 11.092 42.0183 11.236C42.0183 11.452 42.0603 11.626 42.1443 11.758C42.2283 11.878 42.3483 11.938 42.5043 11.938C42.6963 11.938 42.9183 11.842 43.1703 11.65C43.4223 11.446 43.6863 11.146 43.9623 10.75ZM52.9754 12.946C52.9394 12.946 52.8194 12.952 52.6154 12.964C52.4234 12.964 52.2374 12.922 52.0574 12.838C51.8774 12.742 51.7274 12.598 51.6074 12.406C51.5234 12.25 51.4514 12.07 51.3914 11.866C51.3314 11.662 51.3014 11.488 51.3014 11.344C51.3014 11.284 51.3134 11.218 51.3374 11.146C51.5654 9.826 51.7514 8.992 51.8954 8.644L52.1834 7.942C52.2434 7.75 52.2614 7.534 52.2374 7.294V7.222C52.2374 7.066 52.2974 6.934 52.4174 6.826C52.6214 6.67 52.7834 6.466 52.9034 6.214C52.9874 6.01 53.1194 5.734 53.2994 5.386C53.4794 5.038 53.6114 4.81 53.6954 4.702C53.8274 4.522 53.9474 4.348 54.0554 4.18C54.0794 4.144 54.1634 4.018 54.3074 3.802C54.4634 3.574 54.6374 3.382 54.8294 3.226C55.0574 2.842 55.5074 2.38 56.1794 1.84C56.4674 1.6 56.6474 1.444 56.7194 1.372C56.7554 1.336 56.8634 1.3 57.0434 1.264C57.2234 1.216 57.3374 1.186 57.3854 1.174C57.4814 1.15 57.6434 1.108 57.8714 1.048C57.9434 1.012 58.0754 1.042 58.2674 1.138C58.4714 1.222 58.6214 1.318 58.7174 1.426C58.9094 1.762 59.0054 2.026 59.0054 2.218C59.0054 2.374 58.9694 2.548 58.8974 2.74C58.8254 2.932 58.6874 3.244 58.4834 3.676C58.0514 4.54 57.2654 5.362 56.1254 6.142C55.6934 6.526 55.2074 6.862 54.6674 7.15C54.2714 7.354 53.9474 7.498 53.6954 7.582C53.5034 7.642 53.3654 7.78 53.2814 7.996C53.2334 8.104 53.1914 8.236 53.1554 8.392C53.1314 8.548 53.0954 8.65 53.0474 8.698C52.9754 8.77 52.8554 9.172 52.6874 9.904C52.5194 10.636 52.4354 11.134 52.4354 11.398C52.4354 11.494 52.4474 11.578 52.4714 11.65C52.4954 11.722 52.5494 11.776 52.6334 11.812C52.8014 11.776 52.9334 11.722 53.0294 11.65C53.1374 11.566 53.2694 11.434 53.4254 11.254C53.7614 10.834 54.0014 10.432 54.1454 10.048C54.1814 9.94 54.2174 9.802 54.2534 9.634C54.2894 9.454 54.3314 9.316 54.3794 9.22C54.3794 8.8 54.3734 8.53 54.3614 8.41C54.3494 8.278 54.3074 8.122 54.2354 7.942C54.2954 7.906 54.3434 7.87 54.3794 7.834C54.4274 7.786 54.4874 7.768 54.5594 7.78C54.8354 7.84 55.1174 8.008 55.4054 8.284C55.4894 8.368 55.5134 8.47 55.4774 8.59C55.4294 8.974 55.4054 9.25 55.4054 9.418C55.3694 9.502 55.3094 9.688 55.2254 9.976C55.2134 10.132 55.1774 10.282 55.1174 10.426C54.9014 10.87 54.7454 11.17 54.6494 11.326C54.3854 11.818 54.0254 12.238 53.5694 12.586L52.9754 12.946ZM53.8034 6.304C53.8634 6.316 53.9354 6.322 54.0194 6.322C54.1394 6.322 54.2414 6.262 54.3254 6.142C55.2014 5.566 55.9394 5.008 56.5394 4.468C57.1514 3.916 57.5294 3.448 57.6734 3.064C57.7214 2.968 57.7874 2.848 57.8714 2.704C57.9554 2.548 58.0094 2.404 58.0334 2.272L57.9614 1.768C57.6134 1.924 57.3374 2.074 57.1334 2.218C56.9414 2.35 56.6954 2.566 56.3954 2.866C56.0954 3.166 55.6394 3.706 55.0274 4.486C54.4274 5.266 54.0194 5.872 53.8034 6.304ZM69.3184 1.606C70.3864 2.242 70.9204 2.962 70.9204 3.766C70.9204 4.054 70.8544 4.36 70.7224 4.684C70.5304 5.164 70.0444 5.734 69.2644 6.394C68.4844 7.042 67.7584 7.51 67.0864 7.798C66.8224 7.918 66.5164 8.038 66.1684 8.158C65.8204 8.278 65.4784 8.392 65.1424 8.5C64.9024 8.56 64.6624 8.584 64.4224 8.572L64.4584 8.608C64.7344 9.22 65.2684 9.964 66.0604 10.84C66.4324 11.272 66.9424 11.77 67.5904 12.334C68.2384 12.886 68.7964 13.276 69.2644 13.504C69.3124 13.552 69.3364 13.624 69.3364 13.72C69.3364 13.828 69.3004 13.942 69.2284 14.062C69.1684 14.194 69.1144 14.266 69.0664 14.278C69.0424 14.29 69.0124 14.302 68.9764 14.314C68.9404 14.326 68.8984 14.332 68.8504 14.332C68.6824 14.332 68.4424 14.23 68.1304 14.026C67.5664 13.69 67.0204 13.3 66.4924 12.856C65.9644 12.4 65.3884 11.812 64.7644 11.092C64.4884 10.768 64.2664 10.486 64.0984 10.246C63.9424 9.994 63.7744 9.658 63.5944 9.238L63.5584 9.346C63.1984 10.57 62.6524 12.148 61.9204 14.08C61.8604 14.224 61.7704 14.296 61.6504 14.296C61.5184 14.296 61.3564 14.218 61.1644 14.062C61.1404 14.038 61.0984 13.996 61.0384 13.936C60.9784 13.876 60.9364 13.822 60.9124 13.774C60.8884 13.738 60.8764 13.696 60.8764 13.648C60.8764 13.54 60.9724 13.27 61.1644 12.838L61.3804 12.352C61.4524 11.92 61.6264 11.422 61.9024 10.858C61.9864 10.57 62.4724 9.346 63.3604 7.186L63.6844 6.394L63.8824 5.926C64.2064 5.11 64.6444 4.096 65.1964 2.884C65.2564 2.704 65.2864 2.59 65.2864 2.542C65.2864 2.386 65.1844 2.308 64.9804 2.308C64.8484 2.152 64.7824 2.008 64.7824 1.876C64.7824 1.744 64.8424 1.654 64.9624 1.606L65.8984 1.228C66.3184 1.132 66.7264 1.084 67.1224 1.084C67.9264 1.084 68.6584 1.258 69.3184 1.606ZM66.5104 6.97C67.3744 6.574 68.1484 6.082 68.8324 5.494C69.5164 4.894 69.8404 4.312 69.8044 3.748C69.8044 3.52 69.6844 3.28 69.4444 3.028C69.2044 2.776 68.9584 2.614 68.7064 2.542C67.9744 2.374 67.4824 2.29 67.2304 2.29C67.0144 2.29 66.8404 2.338 66.7084 2.434C66.5884 2.518 66.5044 2.656 66.4564 2.848C66.4564 2.884 66.3784 3.058 66.2224 3.37C65.8744 4.126 65.6524 4.642 65.5564 4.918L65.1424 5.764C64.7584 6.532 64.5244 7.012 64.4404 7.204C64.3684 7.396 64.3624 7.522 64.4224 7.582C64.9144 7.546 65.6104 7.342 66.5104 6.97ZM72.8124 5.116C72.7284 5.032 72.6564 4.888 72.5964 4.684C72.5364 4.48 72.5364 4.378 72.5964 4.378C72.6924 4.366 72.8004 4.264 72.9204 4.072C73.0524 3.868 73.1124 3.7 73.1004 3.568C73.1004 3.52 73.1184 3.478 73.1544 3.442C73.1904 3.394 73.2324 3.364 73.2804 3.352C73.3764 3.292 73.4604 3.262 73.5324 3.262C73.7364 3.262 73.9224 3.406 74.0904 3.694C74.1624 3.85 74.1984 3.988 74.1984 4.108C74.1984 4.216 74.1684 4.33 74.1084 4.45C74.0484 4.558 73.9404 4.702 73.7844 4.882C73.5804 5.158 73.3884 5.296 73.2084 5.296C73.0884 5.296 72.9564 5.236 72.8124 5.116ZM71.0664 12.424C70.8984 12.256 70.8144 12.016 70.8144 11.704C70.8144 11.536 70.8444 11.392 70.9044 11.272C70.9044 11.212 70.9164 11.14 70.9404 11.056C70.9644 10.972 70.9764 10.918 70.9764 10.894C70.9644 10.822 71.0124 10.624 71.1204 10.3C71.3364 9.82 71.6244 8.974 71.9844 7.762C71.9844 7.702 72.0084 7.654 72.0564 7.618C72.1044 7.57 72.1764 7.54 72.2724 7.528C72.3684 7.504 72.4344 7.492 72.4704 7.492C72.5424 7.492 72.6024 7.522 72.6504 7.582C72.7104 7.63 72.7884 7.726 72.8844 7.87C72.9564 7.942 72.9924 8.05 72.9924 8.194C72.9924 8.422 72.9144 8.698 72.7584 9.022C72.6024 9.37 72.5004 9.67 72.4524 9.922C72.3084 10.246 72.1944 10.546 72.1104 10.822C72.0864 10.894 72.0504 11.038 72.0024 11.254C71.9544 11.47 71.8884 11.644 71.8044 11.776C71.7324 12.112 71.6664 12.346 71.6064 12.478C71.5464 12.61 71.4804 12.676 71.4084 12.676C71.3244 12.676 71.2104 12.592 71.0664 12.424ZM76.1878 12.802C76.0198 12.826 75.8938 12.838 75.8098 12.838C75.3658 12.838 74.9998 12.7 74.7118 12.424C74.4238 12.148 74.2798 11.764 74.2798 11.272C74.2318 10.744 74.3458 10.09 74.6218 9.31C74.9098 8.53 75.2698 7.876 75.7018 7.348C76.0018 7 76.2598 6.718 76.4758 6.502C76.6918 6.286 76.8898 6.142 77.0698 6.07C77.3218 5.962 77.6038 5.908 77.9158 5.908C78.1318 5.956 78.3418 6.046 78.5458 6.178C78.7618 6.31 78.8698 6.442 78.8698 6.574L78.9598 6.664C79.0318 6.664 79.0978 6.754 79.1578 6.934C79.2178 7.102 79.2478 7.288 79.2478 7.492C79.2478 7.66 79.2178 7.804 79.1578 7.924C79.1098 8.152 79.0258 8.35 78.9058 8.518C78.7978 8.686 78.6898 8.77 78.5818 8.77C78.4498 8.77 78.3838 8.806 78.3838 8.878C78.3838 8.926 78.3598 8.95 78.3118 8.95C78.2518 8.95 78.1798 8.914 78.0958 8.842C78.0118 8.77 77.9518 8.686 77.9158 8.59C77.9158 8.554 77.9398 8.452 77.9878 8.284C78.0358 8.116 78.0838 7.93 78.1318 7.726C78.1678 7.582 78.1858 7.456 78.1858 7.348C78.1858 7.108 78.0958 6.988 77.9158 6.988C77.8198 6.988 77.7238 7.012 77.6278 7.06C77.1478 7.324 76.7218 7.744 76.3498 8.32C75.9778 8.896 75.6658 9.688 75.4138 10.696C75.3538 10.96 75.3238 11.17 75.3238 11.326C75.3238 11.446 75.3298 11.542 75.3418 11.614C75.3658 11.686 75.3898 11.728 75.4138 11.74C75.4738 11.764 75.5998 11.776 75.7918 11.776C76.2358 11.776 76.5478 11.722 76.7278 11.614C77.1118 11.41 77.5378 11.134 78.0058 10.786C78.0538 10.75 78.1258 10.69 78.2218 10.606C78.3178 10.51 78.4078 10.444 78.4918 10.408C78.5758 10.276 78.6538 10.198 78.7258 10.174C78.7978 10.138 78.9118 10.12 79.0678 10.12C79.2238 10.168 79.3498 10.234 79.4458 10.318C79.5418 10.39 79.5418 10.45 79.4458 10.498C79.4098 10.498 79.3858 10.51 79.3738 10.534C79.3618 10.558 79.3558 10.576 79.3558 10.588C79.3798 10.648 79.2838 10.798 79.0678 11.038C78.8518 11.278 78.6118 11.506 78.3478 11.722C78.0838 11.926 77.9038 12.028 77.8078 12.028C77.7598 12.028 77.7178 12.034 77.6818 12.046C77.6458 12.058 77.6278 12.088 77.6278 12.136C77.6278 12.184 77.4418 12.298 77.0698 12.478C76.7098 12.646 76.4158 12.754 76.1878 12.802ZM86.2942 12.442C86.1142 12.538 85.9222 12.586 85.7182 12.586C85.4182 12.586 85.1722 12.454 84.9802 12.19C84.8002 11.926 84.7102 11.572 84.7102 11.128C84.7102 10.924 84.7522 10.588 84.8362 10.12C84.9202 9.64 85.0162 9.244 85.1242 8.932C85.1362 8.908 85.1542 8.86 85.1782 8.788C85.2022 8.716 85.2082 8.668 85.1962 8.644C85.1962 8.608 85.1842 8.59 85.1602 8.59C85.1002 8.59 84.9922 8.668 84.8362 8.824C84.5002 9.112 84.1402 9.478 83.7562 9.922C83.3722 10.354 83.0542 10.774 82.8022 11.182C82.5502 11.578 82.4242 11.854 82.4242 12.01C82.4242 12.142 82.3702 12.244 82.2622 12.316C82.1662 12.388 82.0522 12.424 81.9202 12.424C81.8362 12.424 81.7582 12.406 81.6862 12.37C81.5062 12.262 81.3802 12.142 81.3082 12.01C81.2482 11.878 81.2182 11.686 81.2182 11.434C81.2182 11.23 81.2242 11.068 81.2362 10.948C81.2842 10.12 81.3682 9.394 81.4882 8.77C81.6202 8.134 81.8662 7.234 82.2262 6.07C82.2382 6.034 82.3522 5.728 82.5682 5.152C82.9402 4.096 83.1502 3.52 83.1982 3.424C83.2822 3.34 83.4022 3.082 83.5582 2.65C83.7262 2.206 83.8102 1.936 83.8102 1.84C83.8102 1.66 83.8702 1.51 83.9902 1.39L84.1702 1.21C84.2782 1.21 84.4042 1.258 84.5482 1.354C84.6922 1.438 84.7822 1.54 84.8182 1.66C84.9022 1.816 84.9442 1.984 84.9442 2.164C84.9442 2.332 84.8902 2.542 84.7822 2.794C84.6862 3.034 84.5182 3.388 84.2782 3.856C83.9302 4.552 83.6062 5.35 83.3062 6.25C83.1742 6.634 82.9882 7.234 82.7482 8.05C82.5202 8.854 82.4062 9.322 82.4062 9.454C82.4062 9.538 82.4482 9.58 82.5322 9.58C82.6282 9.58 82.7302 9.508 82.8382 9.364C82.8862 9.268 83.1142 9.034 83.5222 8.662C83.5702 8.614 83.8402 8.368 84.3322 7.924C84.8242 7.468 85.1782 7.24 85.3942 7.24C85.5382 7.24 85.6762 7.294 85.8082 7.402C85.9522 7.51 86.0482 7.636 86.0962 7.78C86.1442 7.828 86.1802 7.876 86.2042 7.924C86.2282 7.972 86.2522 8.008 86.2762 8.032C86.3002 8.056 86.3122 8.128 86.3122 8.248C86.3122 8.668 86.1802 9.274 85.9162 10.066C85.7122 10.858 85.6102 11.332 85.6102 11.488C85.6102 11.596 85.6402 11.65 85.7002 11.65C85.7362 11.626 85.8082 11.584 85.9162 11.524C86.0242 11.464 86.1502 11.392 86.2942 11.308C86.7022 11.032 87.0622 10.894 87.3742 10.894C87.5182 10.894 87.5902 10.942 87.5902 11.038C87.5902 11.062 87.5722 11.104 87.5362 11.164C87.5002 11.224 87.4822 11.272 87.4822 11.308V11.398C87.4822 11.458 87.3202 11.638 86.9962 11.938C86.6722 12.238 86.4382 12.406 86.2942 12.442ZM95.476 7.6C95.536 7.744 95.566 7.87 95.566 7.978C95.566 8.254 95.41 8.692 95.098 9.292C94.894 9.664 94.66 10.024 94.396 10.372C94.132 10.708 93.88 10.99 93.64 11.218C93.556 11.266 93.448 11.344 93.316 11.452C93.196 11.56 93.088 11.674 92.992 11.794C92.716 12.046 92.38 12.244 91.984 12.388C91.6 12.52 91.222 12.586 90.85 12.586C90.562 12.586 90.316 12.544 90.112 12.46C89.908 12.376 89.77 12.25 89.698 12.082C89.698 12.01 89.686 11.932 89.662 11.848C89.65 11.764 89.65 11.704 89.662 11.668C89.386 11.644 89.242 11.596 89.23 11.524C89.242 11.164 89.284 10.918 89.356 10.786C89.356 10.726 89.404 10.564 89.5 10.3C89.572 10.108 89.62 9.958 89.644 9.85C89.668 9.754 89.722 9.484 89.806 9.04C89.89 8.584 90.016 8.158 90.184 7.762C90.496 6.658 90.754 5.872 90.958 5.404C91.114 4.804 91.258 4.33 91.39 3.982C91.534 3.634 91.72 3.214 91.948 2.722L92.218 2.164C92.254 2.092 92.344 1.84 92.488 1.408C92.512 1.348 92.56 1.3 92.632 1.264C92.704 1.216 92.782 1.192 92.866 1.192C92.998 1.192 93.118 1.246 93.226 1.354C93.37 1.498 93.442 1.63 93.442 1.75C93.442 1.87 93.346 2.158 93.154 2.614L92.884 3.262C92.788 3.382 92.68 3.61 92.56 3.946C92.44 4.282 92.362 4.504 92.326 4.612C92.05 5.272 91.804 5.938 91.588 6.61C91.432 7.258 91.252 7.906 91.048 8.554L91.552 8.014C91.984 7.642 92.476 7.318 93.028 7.042C93.58 6.754 94.018 6.61 94.342 6.61C94.414 6.61 94.486 6.622 94.558 6.646C94.714 6.694 94.894 6.826 95.098 7.042C95.314 7.246 95.44 7.432 95.476 7.6ZM93.748 9.526C93.952 9.262 94.132 8.95 94.288 8.59C94.456 8.23 94.54 7.948 94.54 7.744C94.54 7.636 94.51 7.582 94.45 7.582C94.39 7.582 94.18 7.654 93.82 7.798C93.46 7.942 93.238 8.056 93.154 8.14C93.154 8.176 93.124 8.212 93.064 8.248C93.004 8.272 92.962 8.29 92.938 8.302C92.266 8.806 91.792 9.232 91.516 9.58C91.276 9.904 90.958 10.372 90.562 10.984C90.442 11.224 90.28 11.434 90.076 11.614L90.346 11.632C90.742 11.584 91.06 11.524 91.3 11.452C91.552 11.368 91.84 11.224 92.164 11.02C92.86 10.48 93.388 9.982 93.748 9.526ZM98.3483 13.054C97.8323 13.054 97.4063 12.862 97.0703 12.478C96.7343 12.094 96.5663 11.614 96.5663 11.038C96.5663 10.462 96.6923 9.832 96.9443 9.148C97.2083 8.452 97.5443 7.828 97.9523 7.276C98.3603 6.724 98.7743 6.352 99.1943 6.16C99.4343 6.028 99.7043 5.962 100.004 5.962C100.232 5.962 100.49 6.028 100.778 6.16C100.982 6.244 101.138 6.346 101.246 6.466C101.354 6.586 101.45 6.772 101.534 7.024C101.57 7.24 101.588 7.39 101.588 7.474C101.588 7.546 101.558 7.702 101.498 7.942C101.354 8.386 101.162 8.764 100.922 9.076C100.694 9.376 100.394 9.634 100.022 9.85C99.8303 9.97 99.5903 10.03 99.3023 10.03C99.0503 10.03 98.8103 9.988 98.5823 9.904C98.3663 9.808 98.1983 9.67 98.0783 9.49L97.9523 9.346L97.8983 9.49C97.6463 10.138 97.5203 10.69 97.5203 11.146C97.5203 11.458 97.5803 11.71 97.7003 11.902C97.7843 12.034 97.9883 12.1 98.3123 12.1C98.5523 12.1 98.7263 12.076 98.8343 12.028C99.0143 11.968 99.1703 11.896 99.3023 11.812C99.4463 11.716 99.5843 11.62 99.7163 11.524L99.7883 11.488H99.7703C99.9143 11.416 100.034 11.35 100.13 11.29C100.226 11.23 100.292 11.188 100.328 11.164C100.352 11.164 100.376 11.158 100.4 11.146C100.424 11.134 100.448 11.11 100.472 11.074C100.58 11.026 100.706 11.044 100.85 11.128C100.994 11.212 101.066 11.32 101.066 11.452C101.042 11.548 100.934 11.704 100.742 11.92C100.55 12.136 100.406 12.25 100.31 12.262C100.298 12.262 100.256 12.28 100.184 12.316C100.112 12.352 100.064 12.382 100.04 12.406H100.058C99.9503 12.55 99.8423 12.622 99.7343 12.622H99.5903C99.5423 12.718 99.3803 12.814 99.1043 12.91C98.8403 13.006 98.5883 13.054 98.3483 13.054ZM99.1583 9.094C99.5183 9.094 99.8483 8.89 100.148 8.482C100.436 8.098 100.58 7.714 100.58 7.33C100.58 7.126 100.538 6.982 100.454 6.898C100.382 6.862 100.316 6.844 100.256 6.844C100.196 6.844 100.094 6.862 99.9503 6.898C99.7943 6.934 99.5543 7.102 99.2303 7.402C98.9063 7.69 98.6663 7.948 98.5103 8.176L98.2763 8.554C98.3723 8.518 98.4623 8.5 98.5463 8.5C98.6423 8.488 98.6963 8.494 98.7083 8.518C98.7083 8.686 98.7503 8.824 98.8343 8.932C98.9183 9.04 99.0263 9.094 99.1583 9.094ZM103.734 12.568C103.35 12.412 103.08 12.214 102.924 11.974C102.768 11.722 102.69 11.374 102.69 10.93C102.69 10.714 102.708 10.462 102.744 10.174L102.78 9.526C102.78 9.418 102.768 9.334 102.744 9.274C102.72 9.214 102.666 9.148 102.582 9.076C102.558 9.052 102.498 8.992 102.402 8.896C102.306 8.8 102.264 8.722 102.276 8.662L102.258 8.572C102.258 8.488 102.27 8.41 102.294 8.338C102.33 8.266 102.366 8.23 102.402 8.23C102.438 8.23 102.486 8.224 102.546 8.212C102.606 8.188 102.66 8.182 102.708 8.194C102.876 8.194 102.96 8.23 102.96 8.302C103.008 8.398 103.086 8.41 103.194 8.338C103.314 8.254 103.428 8.098 103.536 7.87C103.704 7.606 103.95 7.33 104.274 7.042C104.61 6.742 104.886 6.532 105.102 6.412C105.186 6.364 105.324 6.322 105.516 6.286C105.708 6.238 105.876 6.214 106.02 6.214C106.236 6.214 106.422 6.262 106.578 6.358C106.746 6.454 106.914 6.592 107.082 6.772C107.31 6.94 107.424 7.204 107.424 7.564C107.424 7.816 107.364 8.074 107.244 8.338C107.196 8.518 107.004 8.746 106.668 9.022C106.344 9.298 106.044 9.49 105.768 9.598C105.432 9.682 105.048 9.724 104.616 9.724C104.328 9.724 104.142 9.7 104.058 9.652C103.914 9.568 103.812 9.892 103.752 10.624C103.74 10.708 103.734 10.822 103.734 10.966C103.734 11.17 103.764 11.332 103.824 11.452C103.836 11.464 103.878 11.512 103.95 11.596C104.022 11.668 104.112 11.734 104.22 11.794C104.328 11.842 104.442 11.866 104.562 11.866C104.67 11.866 104.754 11.854 104.814 11.83C104.946 11.794 105.072 11.728 105.192 11.632C105.312 11.524 105.48 11.362 105.696 11.146C105.888 10.954 106.026 10.822 106.11 10.75C106.17 10.642 106.29 10.588 106.47 10.588C106.518 10.588 106.602 10.6 106.722 10.624C106.83 10.708 106.884 10.798 106.884 10.894C106.884 10.99 106.824 11.17 106.704 11.434C106.644 11.554 106.494 11.722 106.254 11.938C106.026 12.142 105.822 12.304 105.642 12.424C105.27 12.628 104.898 12.73 104.526 12.73C104.298 12.73 104.034 12.676 103.734 12.568ZM104.796 8.914C104.916 8.89 105.09 8.86 105.318 8.824C105.546 8.788 105.732 8.71 105.876 8.59C106.032 8.458 106.212 8.236 106.416 7.924C106.452 7.828 106.47 7.732 106.47 7.636C106.47 7.456 106.434 7.33 106.362 7.258C106.278 7.174 106.182 7.132 106.074 7.132C105.906 7.132 105.732 7.204 105.552 7.348C105.432 7.384 105.252 7.516 105.012 7.744C104.784 7.972 104.586 8.2 104.418 8.428C104.25 8.644 104.196 8.77 104.256 8.806C104.232 8.842 104.292 8.872 104.436 8.896C104.58 8.908 104.7 8.914 104.796 8.914Z" fill="black"/>
</svg>
