<svg width="24" height="24" viewBox="0 0 24 24" fill="none" xmlns="http://www.w3.org/2000/svg">
<path d="M23.7906 22.7761L17.9582 16.9437C19.5227 15.145 20.4699 12.7982 20.4699 10.2333C20.4699 4.58714 15.8775 0 10.2367 0C4.59056 0 0.00341797 4.59246 0.00341797 10.2333C0.00341797 15.8741 4.59588 20.4665 10.2367 20.4665C12.8016 20.4665 15.1484 19.5193 16.9471 17.9548L22.7795 23.7871C22.9178 23.9255 23.1041 24 23.285 24C23.4659 24 23.6522 23.9308 23.7906 23.7871C24.0673 23.5104 24.0673 23.0528 23.7906 22.7761ZM1.4349 10.2333C1.4349 5.38004 5.38346 1.43681 10.2314 1.43681C15.0846 1.43681 19.0278 5.38537 19.0278 10.2333C19.0278 15.0812 15.0846 19.035 10.2314 19.035C5.38346 19.035 1.4349 15.0865 1.4349 10.2333Z" fill="#EEEEEE"/>
</svg>
