<svg width="38" height="38" viewBox="0 0 38 38" fill="none" xmlns="http://www.w3.org/2000/svg">
<g clip-path="url(#clip0)">
<path d="M31.5321 20.628C30.9178 19.8522 31.0935 19.507 31.5321 18.8135C31.54 18.8056 36.6114 11.7977 37.1339 9.42116L37.1371 9.41958C37.3968 8.55349 37.1371 7.91699 35.8815 7.91699H31.7268C30.6692 7.91699 30.1815 8.46324 29.9202 9.07441C29.9202 9.07441 27.8049 14.1379 24.8124 17.4202C23.8466 18.3686 23.4001 18.6726 22.8728 18.6726C22.6132 18.6726 22.2094 18.3686 22.2094 17.5025V9.41958C22.2094 8.38091 21.9133 7.91699 21.0378 7.91699H14.5049C13.8415 7.91699 13.4473 8.40149 13.4473 8.85274C13.4473 9.83758 14.9435 10.064 15.0987 12.8348V18.8467C15.0987 20.1641 14.8596 20.4063 14.3292 20.4063C12.9168 20.4063 9.48892 15.3222 7.4575 9.50349C7.04742 8.37458 6.64683 7.91858 5.58125 7.91858H1.425C0.239083 7.91858 0 8.46483 0 9.07599C0 10.1558 1.41233 15.5249 6.56767 22.6182C10.0035 27.4601 14.8422 30.0837 19.2438 30.0837C21.8896 30.0837 22.2126 29.501 22.2126 28.4987C22.2126 23.8722 21.9735 23.4352 23.2987 23.4352C23.9131 23.4352 24.9707 23.7392 27.4408 26.0747C30.2638 28.8439 30.7278 30.0837 32.3079 30.0837H36.4626C37.6469 30.0837 38.247 29.501 37.9018 28.3515C37.1118 25.9337 31.7728 20.9605 31.5321 20.628Z" fill="#000000"/>
</g>
<defs>
<clipPath id="clip0">
<rect width="38" height="38" fill="white"/>
</clipPath>
</defs>
</svg>
